PathFileType	4	(X/Y/Z)	C:/Users/opensim2020/Desktop/walking_exp_matlab/subject06_walking13_straight_01.trc	
DataRate	CameraRate	NumFrames	NumMarkers	Units	OrigDataRate	OrigDataStartFrame	OrigNumFrames	
100.00	100.00	5	50	mm	100.00	910	163	
Frame#	Time	LFHD			RFHD			LBHD			RBHD			C7			T10			CLAV			STRN			RBAK			LSHO			LUPA			LELB			LFRM			LWRA			LWRB			LFIN			RSHO			RUPA			RELB			RFRM			RWRA			RWRB			RFIN			LASI			RASI			LPSI			RPSI			LTHI			LKNE			LTIB			LANK			LHEE			LTOE			RTHI			RKNE			RTIB			RANK			RHEE			RTOE			*39			*40			*41			*42			*43			*44			*45			*46			*47			*48			*49			
		X1	Y1	Z1	X2	Y2	Z2	X3	Y3	Z3	X4	Y4	Z4	X5	Y5	Z5	X6	Y6	Z6	X7	Y7	Z7	X8	Y8	Z8	X9	Y9	Z9	X10	Y10	Z10	X11	Y11	Z11	X12	Y12	Z12	X13	Y13	Z13	X14	Y14	Z14	X15	Y15	Z15	X16	Y16	Z16	X17	Y17	Z17	X18	Y18	Z18	X19	Y19	Z19	X20	Y20	Z20	X21	Y21	Z21	X22	Y22	Z22	X23	Y23	Z23	X24	Y24	Z24	X25	Y25	Z25	X26	Y26	Z26	X27	Y27	Z27	X28	Y28	Z28	X29	Y29	Z29	X30	Y30	Z30	X31	Y31	Z31	X32	Y32	Z32	X33	Y33	Z33	X34	Y34	Z34	X35	Y35	Z35	X36	Y36	Z36	X37	Y37	Z37	X38	Y38	Z38	X39	Y39	Z39	X40	Y40	Z40	X41	Y41	Z41	X42	Y42	Z42	X43	Y43	Z43	X44	Y44	Z44	X45	Y45	Z45	X46	Y46	Z46	X47	Y47	Z47	X48	Y48	Z48	X49	Y49	Z49	X50	Y50	Z50	

62	0.610	-1084.82300	-233.42322	1660.24316	-954.04980	-246.13419	1648.09399	-1098.78186	-368.09741	1613.55945	-970.19373	-379.27039	1606.28650	-1041.62744	-382.99017	1454.78479	-1032.93860	-434.17972	1127.92090	-1033.09351	-276.88480	1371.32593	-1036.91223	-245.67369	1195.67236	-965.76727	-467.93640	1290.15503	-1197.78210	-321.66400	1406.78870	-1275.38220	-301.33368	1208.04626	-1293.11792	-285.35306	1096.92163	-1314.52661	-207.72330	968.73431	-1267.68750	-108.00100	889.33221	-1308.54480	-158.04579	860.23639	-1308.80273	-85.42544	807.00079	-874.56805	-327.20972	1407.16223	-786.89789	-401.27066	1220.08191	-772.97900	-415.95343	1098.43213	-753.34186	-427.36978	978.80286	-781.60071	-401.69751	828.71747	-741.03931	-453.68796	843.51648	-736.78473	-434.73148	761.42798	-1132.99524	-258.73419	961.44336	-912.92047	-263.28137	972.69067	-1106.25684	-416.63095	992.50903	-937.83148	-413.51102	993.44037	-1180.59558	-345.81241	647.96887	-1155.67175	-364.74655	484.94223	-1140.71118	-429.66443	234.38033	-1087.59790	-451.29593	65.43581	-1042.32361	-494.21048	54.53066	-1081.97363	-307.18497	34.09912	-857.67377	-220.23055	654.55853	-885.37439	-168.76720	541.34027	-874.49719	-239.56816	288.28671	-906.68457	-286.06076	105.91591	-950.39368	-329.93814	85.09657	-905.56372	-144.12877	46.38918	-1034.89905	-336.34357	1703.61218																														 
63	0.620	-1084.25586	-222.96478	1659.18298	-953.49609	-235.68390	1646.84546	-1098.46167	-357.67331	1612.73120	-969.84406	-368.88297	1605.17773	-1041.52893	-372.76758	1453.85938	-1033.09412	-424.10620	1126.92419	-1032.92090	-266.78317	1370.29114	-1036.93469	-235.58418	1194.64807	-966.25305	-457.87439	1289.30750	-1197.49084	-311.39529	1406.17004	-1275.38831	-289.89325	1207.80493	-1292.73987	-272.98404	1096.71436	-1314.03638	-192.22809	970.61090	-1267.47913	-89.47575	895.03406	-1307.47742	-139.04990	863.82642	-1308.34509	-64.67324	813.14624	-874.45282	-317.51428	1406.00879	-787.01489	-392.83459	1219.35754	-773.26898	-407.97638	1097.69702	-753.71069	-420.23282	978.11969	-782.14740	-395.77097	827.89624	-741.30090	-447.04050	843.26569	-737.14093	-429.14188	760.88306	-1133.13245	-248.46654	960.24695	-913.04132	-252.87320	971.90118	-1106.10156	-406.51926	991.52997	-937.78961	-403.23972	992.55536	-1180.24988	-337.71005	647.15320	-1155.34546	-358.12344	484.25272	-1140.73828	-426.20288	234.55624	-1087.50037	-450.78586	65.74706	-1042.23816	-493.84952	55.02530	-1081.85022	-307.08029	34.02899	-857.33197	-210.39546	653.77924	-885.06030	-159.05244	540.36511	-874.84961	-218.89862	284.02872	-907.62329	-254.52789	99.26187	-951.53625	-297.16074	76.60044	-907.15961	-109.63934	46.56087	-1034.26953	-325.79300	1702.64563																														 
64	0.630	-1083.57397	-212.45520	1658.02600	-952.93085	-225.39317	1645.53381	-1097.99109	-347.17715	1611.70300	-969.47247	-358.54065	1604.04700	-1041.40979	-362.58777	1452.81567	-1033.17041	-413.97424	1125.94641	-1032.66589	-256.61850	1369.14893	-1036.86951	-225.54236	1193.48096	-966.68231	-447.88812	1288.25549	-1197.25696	-301.10785	1405.50574	-1275.02368	-278.37741	1207.32886	-1292.31165	-260.97769	1096.34741	-1313.43005	-177.06300	972.35651	-1267.17908	-71.69924	900.54175	-1306.30200	-120.46981	867.33032	-1307.28784	-44.47937	819.01990	-874.28888	-307.80093	1404.78247	-787.34180	-384.44064	1218.53503	-773.52679	-399.89438	1096.88867	-754.08813	-412.80737	977.36731	-782.49121	-389.41611	827.01843	-741.60693	-440.76147	842.64673	-737.47369	-423.12778	760.20502	-1133.12488	-238.65488	959.07959	-912.98578	-242.65099	970.83081	-1105.97766	-396.48019	990.44153	-937.60577	-392.93381	991.52094	-1179.94885	-329.54337	646.17548	-1154.61426	-351.30911	483.29654	-1140.69336	-422.99905	234.50400	-1087.44360	-450.30658	66.04612	-1042.26282	-493.49896	55.51914	-1081.55359	-307.36823	33.74796	-856.85205	-201.25592	652.47211	-884.68286	-149.63982	538.93793	-875.13037	-198.35796	279.92114	-908.59149	-223.05466	93.47408	-952.72784	-264.49521	69.23614	-908.49390	-75.72150	47.53701	-1033.74072	-315.31863	1701.51782																														 
65	0.640	-1082.94226	-201.88869	1656.70776	-952.26837	-214.96832	1644.05090	-1097.55701	-336.66360	1610.57825	-968.99011	-348.27908	1602.72205	-1041.25720	-352.22482	1451.54126	-1033.10327	-403.69052	1124.69226	-1032.34485	-246.42738	1367.88489	-1036.69629	-215.27863	1192.22034	-967.10583	-437.98761	1286.99487	-1196.86719	-290.70477	1404.61951	-1274.66492	-266.84680	1206.70581	-1291.73901	-249.07358	1095.74011	-1312.73267	-162.19574	973.92621	-1266.69470	-54.28614	906.03302	-1304.91418	-102.37523	870.72998	-1306.02612	-24.55247	825.03583	-874.06598	-298.19519	1403.50488	-787.57941	-375.82172	1217.58386	-773.78986	-391.66467	1095.99255	-754.40405	-405.28055	976.51801	-782.71222	-382.56552	826.08081	-741.90369	-434.23645	841.89111	-737.70703	-416.79471	759.42242	-1133.11890	-228.47867	957.63000	-912.81445	-232.11639	969.54413	-1105.83545	-386.27625	989.23840	-937.39502	-382.50247	990.37854	-1179.97461	-321.47134	644.95532	-1154.39050	-344.56693	482.29404	-1140.65369	-419.64957	234.37935	-1087.39087	-449.78635	66.28900	-1042.19031	-493.20096	56.09751	-1081.47559	-307.20587	33.66011	-856.35779	-192.49927	650.68896	-884.03625	-140.88889	537.08392	-875.36328	-177.90395	276.00748	-909.66632	-191.70261	88.53884	-954.05237	-232.02821	62.94236	-909.87024	-42.55607	49.17251	-1033.12451	-304.78937	1700.25769																														 
66	0.650	-1082.27063	-191.27390	1655.26758	-951.51587	-204.60101	1642.49231	-1097.09924	-326.08630	1609.30371	-968.54156	-337.97433	1601.32874	-1041.02258	-342.03586	1450.18616	-1033.00037	-393.26016	1123.33630	-1031.95618	-236.12634	1366.52332	-1036.49561	-204.95261	1190.84668	-967.52435	-427.67841	1285.62341	-1196.31482	-280.15558	1403.39368	-1274.15479	-255.38640	1205.88416	-1291.16992	-237.34526	1095.00903	-1311.91907	-147.65486	975.34930	-1266.26245	-36.90689	911.57922	-1303.49731	-84.75750	874.17120	-1304.80298	-5.37293	830.90710	-873.84253	-288.49637	1402.12170	-787.65704	-366.88297	1216.51343	-774.07574	-383.37894	1094.97266	-754.66815	-397.63916	975.59106	-782.74432	-375.30524	825.04303	-742.43335	-427.07336	841.15521	-737.89532	-410.02045	758.53577	-1133.01648	-218.14844	955.98169	-912.67523	-221.64005	967.97638	-1105.69409	-375.88986	987.96313	-937.15259	-371.97055	989.13495	-1179.69348	-313.10489	643.69543	-1154.17102	-337.91418	481.20096	-1140.65588	-416.31656	234.17255	-1087.30591	-449.19180	66.60702	-1042.13623	-492.76083	56.77673	-1081.39075	-307.01151	33.45924	-855.74030	-184.18193	648.47620	-883.23938	-132.53949	534.75854	-875.33685	-157.45911	272.39490	-910.64636	-160.82533	84.66872	-955.32013	-199.86595	57.78683	-911.26050	-9.87484	51.60310	-1032.46631	-294.18088	1698.85181																														 
